<?xml version="1.0" standalone="no"?>
<!DOCTYPE svg PUBLIC "-//W3C//DTD SVG 20010904//EN"
 "http://www.w3.org/TR/2001/REC-SVG-20010904/DTD/svg10.dtd">
<svg version="1.0" xmlns="http://www.w3.org/2000/svg"
 width="1000.000000pt" height="1000.000000pt" viewBox="0 0 1000.000000 1000.000000"
 preserveAspectRatio="xMidYMid meet">
<metadata>
Created by potrace 1.14, written by Peter Selinger 2001-2017
</metadata>
<g transform="translate(0.000000,1000.000000) scale(0.100000,-0.100000)"
fill="#000000" stroke="none">
<path d="M2577 7484 c-3 -4 -19 -7 -34 -9 -133 -11 -165 -35 -466 -334 -147
-147 -270 -265 -272 -262 -3 2 -5 -4 -5 -14 0 -10 -2 -16 -5 -13 -3 2 -74 -66
-158 -152 -83 -87 -158 -158 -165 -159 -7 0 -10 -5 -7 -11 3 -5 2 -10 -2 -10
-12 0 -830 -819 -824 -825 2 -3 0 -5 -5 -5 -6 0 -62 -52 -126 -115 -63 -63
-114 -115 -113 -115 2 0 -26 -28 -63 -62 -176 -168 -224 -251 -224 -388 0 -85
21 -161 61 -219 35 -52 99 -121 111 -121 5 0 10 -3 10 -8 0 -11 119 -132 130
-132 6 0 10 -4 10 -8 0 -5 73 -81 162 -170 89 -89 165 -162 170 -162 4 0 8 -4
8 -8 0 -11 200 -212 211 -212 5 0 9 -4 9 -10 0 -13 48 -59 54 -52 3 3 6 -1 6
-8 0 -13 37 -50 51 -50 4 0 11 -9 14 -20 3 -11 13 -20 21 -20 8 0 14 -4 14 -9
0 -12 59 -71 71 -71 5 0 9 -4 9 -9 0 -11 180 -191 192 -191 4 0 8 -4 8 -8 0
-5 204 -212 452 -461 424 -423 457 -455 527 -489 67 -33 84 -37 160 -39 68 -1
97 3 150 23 36 14 68 29 69 34 2 6 9 10 16 10 6 0 19 8 28 19 8 10 20 20 25
22 13 6 83 95 83 106 0 6 7 16 15 23 9 7 13 15 11 18 -3 2 -1 13 5 24 24 45
30 151 13 225 -11 50 -51 135 -66 141 -5 2 -8 8 -8 12 0 5 -405 414 -900 909
-495 494 -900 902 -900 905 0 3 395 401 878 884 960 962 952 954 952 977 0 8
4 15 8 15 14 0 45 117 45 168 0 72 -6 123 -15 128 -4 3 -8 16 -8 30 0 13 -3
24 -8 24 -4 0 -13 14 -21 32 -13 30 -89 113 -136 149 -19 14 -52 30 -65 31 -3
0 -14 5 -25 11 -22 12 -35 15 -85 19 -19 2 -38 6 -41 11 -3 4 -8 4 -12 1z"/>
<path d="M7308 7460 c-60 -18 -149 -76 -181 -117 -10 -13 -25 -30 -33 -37 -8
-8 -14 -19 -14 -24 0 -6 -4 -12 -8 -14 -5 -1 -20 -32 -34 -67 -21 -51 -25 -78
-23 -140 2 -89 6 -104 39 -176 20 -45 155 -184 908 -938 485 -487 896 -899
911 -915 l29 -30 -917 -916 c-503 -504 -913 -921 -910 -926 3 -6 2 -10 -4 -10
-5 0 -20 -26 -32 -57 -25 -65 -34 -208 -17 -252 51 -128 126 -217 224 -265 31
-16 62 -29 68 -30 6 -1 16 -4 21 -8 17 -10 189 -3 211 10 12 6 24 8 28 5 3 -3
6 -1 6 5 0 6 17 16 38 23 26 8 76 51 165 139 70 70 127 125 127 123 0 -2 21
20 48 49 26 29 73 77 104 106 32 28 57 52 55 52 -2 0 382 386 853 858 809 809
858 861 890 927 29 61 34 82 36 160 2 53 -1 94 -8 102 -6 7 -8 13 -5 13 10 0
-33 93 -59 127 -13 17 -24 36 -24 42 0 5 -8 12 -17 16 -10 3 -38 30 -63 60
-25 29 -48 54 -53 54 -10 1 -107 103 -107 113 0 4 -5 8 -10 8 -13 0 -80 71
-80 84 0 5 -2 7 -5 4 -6 -6 -1145 1131 -1145 1143 0 5 -4 9 -10 9 -11 0 -310
300 -310 312 0 4 -4 8 -10 8 -12 0 -150 139 -150 151 0 5 -5 9 -11 9 -13 0
-69 58 -69 71 0 5 -5 9 -10 9 -6 0 -28 17 -49 38 -35 34 -141 99 -141 87 0 -3
-10 0 -22 6 -36 19 -166 18 -230 -1z"/>
<path d="M4966 6753 c-1 -1 -40 -4 -86 -7 -47 -3 -101 -9 -120 -12 -19 -4 -47
-8 -62 -8 -16 -1 -28 -5 -28 -10 0 -5 -3 -7 -6 -4 -11 11 -231 -54 -334 -99
-79 -35 -165 -78 -168 -85 -2 -5 -10 -8 -18 -8 -8 0 -14 -4 -14 -10 0 -5 -3
-9 -7 -8 -13 3 -63 -24 -63 -34 0 -4 -6 -8 -12 -8 -7 0 -26 -12 -43 -25 -16
-14 -59 -48 -95 -76 -58 -46 -162 -148 -245 -241 -35 -38 -117 -157 -158 -226
-32 -55 -117 -230 -117 -241 0 -4 -7 -22 -16 -39 -8 -17 -17 -43 -20 -57 -2
-14 -12 -47 -20 -72 -16 -45 -19 -61 -29 -118 -3 -16 -8 -38 -11 -48 -3 -10
-7 -42 -9 -70 -2 -29 -5 -52 -6 -52 -8 0 -13 -296 -5 -360 2 -16 7 -52 10 -80
3 -27 9 -61 12 -75 3 -14 7 -36 10 -50 3 -14 12 -50 20 -80 8 -30 17 -62 19
-70 13 -51 68 -191 103 -260 24 -48 84 -154 91 -160 3 -3 12 -16 20 -30 59
-107 248 -310 381 -410 18 -14 39 -31 46 -37 7 -7 15 -13 18 -13 6 0 99 -61
106 -70 3 -3 21 -12 40 -20 19 -8 37 -17 40 -20 7 -9 76 -40 89 -40 6 0 11 -4
11 -10 0 -5 3 -9 8 -8 6 1 41 -11 82 -29 8 -4 20 -7 25 -8 6 0 15 -3 20 -6 12
-8 79 -30 103 -34 9 -2 17 -4 17 -5 0 -2 29 -9 60 -15 48 -10 77 -15 103 -21
36 -7 84 -13 162 -19 36 -3 82 -7 103 -9 20 -2 40 1 43 6 4 7 9 6 14 -1 5 -8
14 -9 33 -2 17 7 27 7 27 1 0 -5 6 -7 13 -5 6 3 35 7 62 9 28 3 50 5 50 6 0 2
61 9 103 11 17 1 32 6 32 11 0 5 4 7 9 4 4 -3 35 1 67 10 33 9 68 17 79 18 11
2 29 8 40 13 11 6 22 11 25 11 6 1 32 9 58 19 9 3 22 7 27 8 31 6 55 19 55 28
0 6 3 8 6 4 4 -3 25 4 48 15 22 12 43 23 46 24 3 1 15 5 28 9 12 4 22 12 22
17 0 5 5 6 10 3 6 -3 10 -1 10 4 0 6 5 11 11 11 6 0 23 9 39 20 15 11 30 17
34 13 3 -3 6 -2 6 4 0 6 22 25 49 42 27 17 58 39 69 49 12 9 40 33 63 52 56
47 168 158 199 199 14 18 30 38 36 44 26 30 94 127 94 136 0 6 7 14 16 19 8 5
16 15 17 24 2 8 10 26 18 39 15 23 72 129 74 139 3 8 25 64 35 85 13 29 24 69
22 78 -1 4 2 7 8 7 5 0 10 9 10 19 0 11 5 32 11 48 7 15 13 39 15 53 2 14 6
36 10 50 10 34 13 47 20 105 4 28 9 52 13 55 3 3 7 32 8 65 4 184 4 255 -2
264 -3 6 -1 11 5 11 7 0 8 6 2 18 -5 9 -9 35 -11 57 -5 84 -55 329 -72 350 -4
6 -10 22 -12 35 -8 43 -109 273 -127 290 -9 9 -41 65 -47 83 -3 9 -9 17 -14
17 -5 0 -9 7 -9 15 0 8 -4 15 -10 15 -5 0 -10 6 -10 14 0 8 -3 16 -7 18 -5 2
-24 23 -43 48 -58 74 -62 80 -135 154 -38 40 -97 94 -130 121 -33 28 -62 52
-65 55 -13 13 -132 90 -138 90 -5 0 -18 9 -30 20 -12 12 -22 18 -22 14 0 -3
-7 -1 -15 6 -14 12 -127 68 -143 71 -4 0 -16 6 -27 12 -11 6 -24 12 -30 13 -5
1 -28 10 -50 20 -22 10 -44 18 -50 19 -5 0 -35 9 -66 18 -59 18 -90 26 -124
31 -11 2 -20 4 -20 6 0 1 -22 4 -50 6 -27 3 -53 10 -57 17 -6 9 -8 9 -8 0 0
-8 -9 -9 -27 -4 -16 4 -41 7 -58 7 -16 -1 -33 4 -37 9 -5 6 -8 5 -8 -2 0 -7
-6 -10 -13 -7 -13 4 -127 11 -131 7z"/>
</g>
</svg>
